{"title":"Deadpool (2016) HDTS x264 READNFO - Exclusive","uid":13551961,"size":1542779522,"categoryP":"video","categoryS":"movies","magnet":"?xt=urn:btih:61ecd1d1d88b8ceb8dea36a0e472fa1e11e8aaac&amp;dn=Deadpool+%282016%29+HDTS+x264+READNFO+-+Exclusive&amp;tr=udp%3A%2F%2Ftracker.leechers-paradise.org%3A6969&amp;tr=udp%3A%2F%2Fzer0day.ch%3A1337&amp;tr=udp%3A%2F%2Fopen.demonii.com%3A1337&amp;tr=udp%3A%2F%2Ftracker.coppersurfer.tk%3A6969&amp;tr=udp%3A%2F%2Fexodus.desync.com%3A6969","seeders":46,"leechers":14,"uploader":"tykoon123","files":2,"time":1455559016,"description":"http://imgh.us/PHmsnmPgBPiGqm_1_l.jpg\r\n\r\nVIDEO: Russian mDTS\r\nAUDIO: THX FTP PREMIUM for perfect LiNE Audio :)\r\n\r\nREADNFO:\r\nPost credits for the movie is missing. Added as seperate video clip with this torrent. Cant mess with good russian video, so we kept is seperate.\r\n\r\nFormat                                   : Matroska\r\nFormat version                           : Version 4 / Version 2\r\nFile size                                : 1.39 GiB\r\nDuration                                 : 1h 36mn\r\nOverall bit rate                         : 2 068 Kbps\r\nEncoded date                             : UTC 2016-02-15 16:22:34\r\nWriting application                      : mkvmerge v8.8.0 ('Wind at my back') 32bit\r\nWriting library                          : libebml v1.3.3 + libmatroska v1.4.4\r\n\r\nVideo\r\nID                                       : 1\r\nFormat                                   : MPEG-4 Visual\r\nFormat profile                           :   \r\nFormat settings, BVOP                    : No\r\nFormat settings, QPel                    : No\r\nFormat settings, GMC                     : No warppoints\r\nFormat settings, Matrix                  : Default (H.263)\r\nCodec ID                                 : V_MS/VFW/FOURCC / XVID\r\nCodec ID/Hint                            : XviD\r\nDuration                                 : 1h 36mn\r\nBit rate                                 : 1 835 Kbps\r\nWidth                                    : 720 pixels\r\nHeight                                   : 404 pixels\r\nDisplay aspect ratio                     : 16:9\r\nFrame rate mode                          : Constant\r\nFrame rate                               : 23.962 fps\r\nOriginal frame rate                      : 23.000 fps\r\nColor space                              : YUV\r\nChroma subsampling                       : 4:2:0\r\nBit depth                                : 8 bits\r\nScan type                                : Progressive\r\nCompression mode                         : Lossy\r\nBits/(Pixel*Frame)                       : 0.263\r\nStream size                              : 1.24 GiB (89%)\r\nWriting library                          : XviD 1.2.1 (UTC 2008-12-04)\r\nDefault                                  : Yes\r\nForced                                   : No\r\n\r\nAudio\r\nID                                       : 2\r\nFormat                                   : AC-3\r\nFormat/Info                              : Audio Coding 3\r\nMode extension                           : CM (complete main)\r\nFormat settings, Endianness              : Big\r\nCodec ID                                 : A_AC3\r\nDuration                                 : 1h 36mn\r\nBit rate mode                            : Constant\r\nBit rate                                 : 192 Kbps\r\nChannel(s)                               : 2 channels\r\nChannel positions                        : Front: L R\r\nSampling rate                            : 48.0 KHz\r\nBit depth                                : 16 bits\r\nCompression mode                         : Lossy\r\nStream size                              : 132 MiB (9%)\r\nDefault                                  : Yes\r\nForced                                   : No\r\n\r\n\r\nScreens: \nhttp://imgh.us/Deadpool_(2016)_HDTS_x264_READNFO_-_Exclusive.mkvs_2016.02.15_11.32.28.jpg","torrent":{"xt":"urn:btih:61ecd1d1d88b8ceb8dea36a0e472fa1e11e8aaac","amp;dn":"Deadpool+%282016%29+HDTS+x264+READNFO+-+Exclusive","amp;tr":["udp%3A%2F%2Ftracker.leechers-paradise.org%3A6969","udp%3A%2F%2Fzer0day.ch%3A1337","udp%3A%2F%2Fopen.demonii.com%3A1337","udp%3A%2F%2Ftracker.coppersurfer.tk%3A6969","udp%3A%2F%2Fexodus.desync.com%3A6969"],"infoHash":"61ecd1d1d88b8ceb8dea36a0e472fa1e11e8aaac","infoHashBuffer":{"type":"Buffer","data":[97,236,209,209,216,139,140,235,141,234,54,160,228,114,250,30,17,232,170,172]},"announce":[],"urlList":[]}}